<svg width="264" height="112" fill="none" xmlns="http://www.w3.org/2000/svg"><rect x=".5" y=".5" width="263" height="111" rx="3.5" fill="#F4F4FD" stroke="#8E8F99"/><g clip-path="url(#clip0_302815_4207)"><path d="M129.851 53.93h2.132v9.594h-2.132V53.93zM138.38 58.194h2.132v5.33h-2.132v-5.33zM121.322 61.392h2.132v2.132h-2.132v-2.132zM114.926 60.326h2.132v3.198h-2.132v-3.198z" fill="#4D5AE5"/><path d="M103.198 80.582h51.174a3.198 3.198 0 0 0 3.198-3.198v-4.265a3.198 3.198 0 0 0-3.198-3.198h-1.067V43.334l6.056-5.736a3.217 3.217 0 1 0-1.493-1.526l-4.563 4.325v-2.46a3.198 3.198 0 0 0-3.198-3.198h-42.644a3.199 3.199 0 0 0-3.199 3.199V69.92h-1.066A3.198 3.198 0 0 0 100 73.119v4.265a3.198 3.198 0 0 0 3.198 3.198zm57.57-46.909a1.066 1.066 0 1 1 0 2.132 1.066 1.066 0 0 1 0-2.132zm-54.371 4.265c0-.59.477-1.067 1.066-1.067h42.644c.589 0 1.066.478 1.066 1.067v4.477l-2.132 2.026V40.07c0-.589-.477-1.066-1.066-1.066h-38.38c-.589 0-1.066.477-1.066 1.066v26.652c0 .59.477 1.067 1.066 1.067h38.38c.589 0 1.066-.478 1.066-1.067V47.374l2.132-2.02V69.92h-44.776V37.938zm9.595 13.859a3.198 3.198 0 1 0 2.214 5.497l3.706 1.86c.43.215.953.114 1.273-.246l7.877-8.863 7.744 5.803c.416.311.996.278 1.372-.079l6.731-6.375v16.262h-36.248v-24.52h36.248v5.32l-7.543 7.144-7.809-5.855a1.066 1.066 0 0 0-1.436.145l-7.986 8.985-2.986-1.493c.022-.128.036-.257.041-.387a3.198 3.198 0 0 0-3.198-3.198zm1.066 3.198a1.067 1.067 0 1 1-2.133 0 1.067 1.067 0 0 1 2.133 0zm6.396 17.058h10.661v1.066c0 .589-.477 1.066-1.066 1.066h-8.529a1.067 1.067 0 0 1-1.066-1.066v-1.066zm-21.322 1.066c0-.589.478-1.066 1.066-1.066h18.124v1.066a3.198 3.198 0 0 0 3.198 3.198h8.529a3.199 3.199 0 0 0 3.199-3.198v-1.066h18.124c.588 0 1.066.477 1.066 1.066v4.265c0 .588-.478 1.066-1.066 1.066h-51.174a1.067 1.067 0 0 1-1.066-1.066v-4.265z" fill="#2E2F42"/></g><defs><clipPath id="clip0_302815_4207"><path fill="#fff" transform="translate(100 24)" d="M0 0h64v64H0z"/></clipPath></defs></svg>